<svg height="220" width="167" xmlns="http://www.w3.org/2000/svg"><path d="m-1-1h582v402h-582z" fill="none"/><g fill="#b2b2b2"><path d="m71.78125 9.8125.6875 87.5-.03125 9.15625-27.71875-41.46875h-21.1875l45.40625 67.96875-52.03125 77.84375h21.28125l34.25-51.40625v3.03125 48.375h14.0625l.53125-43.25v-7.375l33.46875 50.625h21.1875l-50-75.78125 46.875-70.03125h-21.1875l-30.625 45.59375v-1.40625-12.15625l.375-34.875h11.375c9.80464.00003 17.21869-2.2109 22.21875-6.625 5.03899-4.41402 7.53118-10.96089 7.53125-19.59375-.00007-8.55462-2.49226-15.02336-7.53125-19.4375-5.00006-4.45304-12.4141-6.68741-22.21875-6.6875zm15.3125 9.71875h11.40625c5.50777.00008 9.77339 1.42976 12.78125 4.28125 3.00776 2.85163 4.49995 6.89069 4.5 12.125-.00005 5.27349-1.49224 9.33599-4.5 12.1875-3.00786 2.85161-7.27347 4.28129-12.78125 4.28125h-11.40625z" fill-rule="evenodd" stroke="#b2b2b2"/><text cursor="move" font-family="Bitstream Vera Sans" font-size="48" x="6.486486" xml:space="preserve" y="137.83784">    <tspan x="6.486486" y="137.83784">α</tspan>   </text><text font-family="Bitstream Vera Sans" font-size="48" x="118.10812" xml:space="preserve" y="138.37837">    <tspan x="118.10812" y="138.37837">ω</tspan>   </text></g></svg>